<?xml version="1.0" encoding="UTF-8" standalone="no"?><!DOCTYPE svg PUBLIC "-//W3C//DTD SVG 1.1//EN" "http://www.w3.org/Graphics/SVG/1.1/DTD/svg11.dtd"><svg width="100%" height="100%" viewBox="0 0 4332 851" version="1.1" xmlns="http://www.w3.org/2000/svg" xmlns:xlink="http://www.w3.org/1999/xlink" xml:space="preserve" xmlns:serif="http://www.serif.com/" style="fill-rule:evenodd;clip-rule:evenodd;stroke-linejoin:round;stroke-miterlimit:2;"><path d="M266.799,525.42c-1.852,-2.777 -4.629,-2.777 -6.48,-0l-25.919,31.476c-19.44,23.142 -41.657,32.399 -64.799,32.399c-31.473,0 -64.798,-18.513 -93.495,-48.135l-26.845,-25.92c-1.851,-1.852 -3.702,-0.926 -5.554,0.925l-38.879,27.772c-1.082,2.134 -0.711,4.733 0.925,6.479l41.657,37.953c37.953,34.25 82.387,53.689 122.191,53.689c35.18,0 70.352,-12.034 97.198,-42.581l33.325,-37.952c2.772,-3.704 0.925,-5.554 -0.926,-7.406l-32.399,-28.699Zm111.085,-58.314c-3.703,-0.926 -5.554,-5.555 -2.771,-9.257c10.182,-13.886 19.438,-31.474 28.696,-45.358c1.851,-2.772 -0.926,-5.555 -1.852,-6.481l-35.18,-24.993c-1.852,-1.852 -4.629,-0 -5.554,1.85c-16.236,28.509 -35.477,55.198 -57.394,79.611c-4.627,5.554 -7.405,12.034 -7.405,17.59c0,15.736 11.109,31.473 26.845,32.399c88.866,8.332 136.077,41.656 136.077,112.009c0,19.439 -3.703,40.73 -10.183,64.798l-13.889,48.13c-0.925,3.702 -0.925,7.405 1.852,10.182l39.805,24.994c2.778,1.851 6.48,0.926 7.405,-2.777l16.663,-66.65c7.405,-28.697 11.109,-54.616 11.109,-78.684c-0,-80.534 -43.508,-133.299 -134.226,-157.368l0.002,0.005Zm2685.67,-62.259c0,12.96 -2.777,22.217 -8.331,29.622c-7.406,10.183 -23.142,12.96 -45.359,12.96l-46.285,0l-0,-101.829l46.285,-0c22.217,-0 37.028,2.777 45.359,12.959c5.554,6.48 8.331,16.663 8.331,29.623l0,16.665Zm-415.876,5.554c0,12.96 -2.777,22.217 -7.406,27.771c-3.702,4.628 -9.257,6.48 -16.663,8.332c-7.406,1.851 -16.661,1.85 -27.77,1.85l-52.764,0l-0,-102.754l52.764,-0c9.595,-0.003 19.181,0.616 28.697,1.851c6.479,0.926 12.034,4.628 15.736,8.332c5.554,5.553 7.406,14.811 7.406,28.695l0,25.923Zm-597.997,0c-0,12.96 -2.777,22.217 -7.406,27.771c-3.703,4.628 -9.257,6.48 -16.662,8.332c-7.405,1.851 -16.663,1.85 -27.771,1.85l-52.765,0l0,-102.754l52.765,-0c9.595,-0.003 19.181,0.616 28.696,1.851c6.48,0.926 12.034,4.628 15.737,8.332c5.554,5.553 7.406,14.811 7.406,28.695l-0,25.923Zm2219.03,90.723c-0,36.103 -7.406,59.245 -24.069,73.133c-10.182,8.331 -24.993,12.96 -43.507,12.96c-18.513,0 -33.325,-4.629 -44.434,-12.96c-16.662,-12.959 -23.142,-37.027 -23.142,-73.133l-0,-72.217c-0,-36.103 7.406,-60.17 23.142,-73.133c11.109,-9.258 25.92,-12.96 44.434,-12.96c18.515,-0 33.325,4.629 43.507,12.96c16.663,12.959 24.069,37.027 24.069,73.133l-0,72.217Zm-901.628,-41.667l-109.231,-0l0.925,-57.394c0,-19.439 5.554,-34.25 14.811,-44.433c10.183,-11.108 23.143,-14.811 38.879,-14.811c16.663,0 29.622,4.629 39.805,14.811c10.183,10.182 14.811,24.994 14.811,44.433l0,57.394Zm-1960.76,41.653c-0,51.839 -13.886,85.164 -66.65,85.164c-49.062,-0 -67.575,-26.845 -67.575,-85.164l-0,-73.133c-0,-54.615 16.661,-85.163 67.575,-85.163c50.914,-0 66.65,30.548 66.65,85.163l-0,73.133Zm2584.68,83.313l-141.635,0l0,-94.421l125.894,-0c0.927,-0 2.772,-0.926 2.772,-1.851l0,-46.285c-0.403,-1.328 -1.444,-2.371 -2.772,-2.777l-125.894,0l0,-93.489l136.078,-0c0.116,0.016 0.233,0.025 0.35,0.025c1.345,-0 2.452,-1.107 2.452,-2.452c-0,-0.117 -0.008,-0.235 -0.025,-0.351l-0,-45.363c0.017,-0.116 0.025,-0.233 0.025,-0.351c-0,-1.345 -1.107,-2.451 -2.452,-2.451c-0.117,-0 -0.234,0.008 -0.35,0.025l-189.767,-0c-0.114,-0.017 -0.23,-0.025 -0.345,-0.025c-1.345,0 -2.452,1.107 -2.452,2.452c-0,0.117 0.008,0.234 0.025,0.35l-0,335.1c-0,0.926 -0,0.926 0.925,1.851c0.499,0.503 1.15,0.829 1.852,0.926l195.319,-0c0.925,-0 1.851,-1.851 1.851,-2.777l-0,-45.359c-0.003,-1.852 -0.929,-2.777 -1.851,-2.777Zm-275.857,0l-131.447,0l0,-286.964c-0.087,-1.489 -1.288,-2.69 -2.777,-2.777l-50.913,-0c-0.116,-0.017 -0.233,-0.025 -0.35,-0.025c-1.345,-0 -2.452,1.106 -2.452,2.451c0,0.118 0.009,0.235 0.025,0.351l0,335.1c0.088,1.488 1.289,2.689 2.777,2.777l185.138,-0c1.489,-0.088 2.69,-1.289 2.777,-2.777l0,-45.359c0.017,-0.116 0.026,-0.233 0.026,-0.351c-0,-1.345 -1.107,-2.452 -2.452,-2.452c-0.119,0 -0.237,0.009 -0.355,0.026l0.003,0Zm-691.394,-289.741l-112.937,-0c-1.488,0.087 -2.689,1.288 -2.777,2.777l0,335.1c0.088,1.488 1.289,2.689 2.777,2.777l50.914,-0c1.488,-0.088 2.689,-1.289 2.777,-2.777l0,-134.226l59.246,0c33.325,0 59.244,-11.107 76.832,-29.622c17.588,-18.514 26.846,-43.508 26.846,-72.204c0,-28.697 -8.331,-54.615 -26.846,-73.133c-17.59,-17.585 -43.509,-28.692 -76.832,-28.692Zm-312.199,97.197c-0,-27.771 -9.258,-51.839 -26.846,-69.427c-17.588,-17.588 -43.508,-27.77 -76.832,-27.77l-117.565,-0c-0.116,-0.017 -0.233,-0.025 -0.35,-0.025c-1.345,-0 -2.452,1.106 -2.452,2.451c-0,0.118 0.008,0.235 0.025,0.351l-0,335.1c0.087,1.488 1.288,2.689 2.777,2.777l50.913,-0c1.329,-0.405 2.373,-1.448 2.777,-2.777l-0,-133.299l74.981,-0c12.034,-0 20.362,2.771 24.993,7.405c5.555,5.554 8.332,13.885 8.332,25.919l-0,99.044c-0.017,0.116 -0.025,0.233 -0.025,0.35c-0,1.345 1.106,2.452 2.452,2.452c0.117,0 0.234,-0.008 0.35,-0.025l50.913,-0c1.487,-0.09 2.685,-1.291 2.772,-2.777l0,-112.003c0,-15.738 -4.629,-27.771 -12.96,-37.028c-6.48,-7.406 -14.811,-12.034 -25.92,-13.886c26.851,-15.736 41.663,-41.656 41.663,-76.832l0.002,0Zm-322.142,192.544l-64.798,0l0,-238.823l61.093,-0c0.116,0.016 0.233,0.025 0.35,0.025c1.345,-0 2.452,-1.107 2.452,-2.452c-0,-0.117 -0.009,-0.235 -0.025,-0.351l-0,-45.363c0.016,-0.116 0.025,-0.233 0.025,-0.351c-0,-1.345 -1.107,-2.451 -2.452,-2.451c-0.117,-0 -0.234,0.008 -0.35,0.025l-181.436,-0c-1.488,0.087 -2.689,1.288 -2.777,2.777l-0,45.358c0.088,1.489 1.289,2.69 2.777,2.777l63.873,0l0,238.829l-64.798,0c-0.116,-0.017 -0.233,-0.025 -0.351,-0.025c-1.345,-0 -2.452,1.107 -2.452,2.452c0,0.117 0.009,0.234 0.026,0.35l-0,45.359c0.087,1.488 1.288,2.689 2.777,2.777l186.063,-0c0.927,-0 1.852,-1.851 1.852,-2.777l-0,-45.359c0.001,-1.852 -0.924,-2.777 -1.851,-2.777l0.002,0Zm-275.855,-192.544c-0,-27.771 -9.257,-51.839 -26.845,-69.427c-17.588,-17.588 -43.508,-27.77 -76.833,-27.77l-117.565,-0c-0.116,-0.017 -0.233,-0.025 -0.351,-0.025c-1.345,-0 -2.451,1.106 -2.451,2.451c-0,0.118 0.008,0.235 0.025,0.351l-0,335.1c0.087,1.488 1.288,2.689 2.777,2.777l50.913,-0c1.328,-0.406 2.369,-1.449 2.772,-2.777l0,-133.299l74.982,-0c12.034,-0 20.362,2.771 24.994,7.405c5.554,5.554 8.331,13.885 8.331,25.919l0,99.044c-0.016,0.116 -0.025,0.232 -0.025,0.349c0,1.345 1.107,2.452 2.452,2.452c0.116,0 0.231,-0.008 0.345,-0.024l50.914,-0c1.486,-0.09 2.684,-1.291 2.771,-2.777l0,-112.003c0,-15.738 -4.628,-27.771 -12.96,-37.028c-6.479,-7.406 -14.811,-12.034 -25.918,-13.886c26.858,-15.736 41.669,-41.656 41.669,-76.832l0.003,0Zm-330.472,-97.197l-50.914,-0c-0.116,-0.017 -0.233,-0.025 -0.35,-0.025c-1.345,-0 -2.452,1.106 -2.452,2.451c-0,0.118 0.008,0.235 0.025,0.351l-0,224.017c-0,24.994 -4.628,41.656 -12.959,51.839c-8.332,11.108 -23.143,13.885 -40.731,13.885c-18.513,0 -32.399,-4.629 -40.73,-13.885c-9.257,-11.109 -13.886,-26.845 -13.886,-51.839l0,-224.017c0.017,-0.116 0.025,-0.233 0.025,-0.351c0,-1.345 -1.107,-2.451 -2.452,-2.451c-0.117,-0 -0.234,0.008 -0.35,0.025l-50.913,-0c-1.488,0.087 -2.689,1.288 -2.777,2.777l0,229.571c0,58.314 40.731,111.085 111.085,111.085c69.427,-0 110.158,-52.764 110.158,-111.085l-0,-229.571c0.017,-0.116 0.025,-0.234 0.025,-0.351c0,-1.345 -1.107,-2.452 -2.452,-2.452c-0.118,-0 -0.237,0.008 -0.354,0.026l0.002,-0Zm2418.05,-3.704c-93.495,0 -131.447,75.905 -131.447,174.031c-0,98.126 38.879,173.104 131.447,173.104c92.569,-0 130.522,-74.981 130.522,-173.104c0,-98.124 -37.956,-174.031 -130.524,-174.031l0.002,0Zm-887.739,0c-69.427,0 -110.157,52.764 -110.157,112.01l-0,229.571c0.087,1.488 1.288,2.689 2.777,2.777l49.987,-0c1.489,-0.088 2.69,-1.289 2.777,-2.777l0,-121.266l108.306,0l0,121.266c0.405,1.329 1.448,2.372 2.777,2.777l50.913,-0c1.489,-0.088 2.69,-1.289 2.777,-2.777l0,-229.571c-0.002,-59.246 -40.733,-112.01 -110.159,-112.01l0.002,0Zm-1973.72,0c-93.495,0 -131.447,75.905 -131.447,174.031c-0,98.126 37.952,173.104 131.447,173.104c92.57,-0 130.523,-74.981 130.523,-173.104c-0,-98.124 -37.956,-174.031 -130.528,-174.031l0.005,0Zm-391.57,64.799c11.109,-8.331 25.92,-12.96 44.433,-12.96c19.44,0 33.326,4.629 44.433,12.96c16.663,12.034 22.217,36.102 22.217,68.501c0.09,1.485 1.287,2.682 2.772,2.772l54.616,-0c0.116,0.017 0.233,0.025 0.35,0.025c1.345,-0 2.452,-1.107 2.452,-2.452c-0,-0.115 -0.008,-0.231 -0.025,-0.345c0,-57.393 -34.251,-133.3 -127.745,-133.3c-93.495,0 -131.448,75.905 -131.448,174.031c0,98.126 37.953,173.104 131.448,173.104c93.494,-0 127.745,-76.832 127.745,-132.374c-0.087,-1.488 -1.288,-2.689 -2.777,-2.777l-54.616,0c-1.486,0.09 -2.684,1.291 -2.772,2.777c0,32.399 -6.479,54.616 -22.217,68.501c-11.107,10.183 -26.845,12.034 -49.061,12.034c-16.662,-0 -29.623,-4.628 -39.805,-12.034c-17.59,-12.959 -24.067,-37.027 -24.067,-73.133l-0,-72.2c-0,-36.103 7.404,-60.174 24.067,-73.13Zm-236.051,-46.043l-34.251,-24.068c-3.703,-2.777 -6.48,-0.925 -7.405,1.852c-6.48,18.513 -24.994,43.507 -42.583,57.392c-19.438,15.737 -40.73,25.919 -65.723,25.919c-26.845,0 -58.314,-10.182 -89.793,-33.324l-85.163,-60.171c-38.879,-27.77 -74.055,-44.433 -116.634,-44.433c-68.502,0 -123.117,39.806 -156.442,106.456c-1.851,3.702 -0,6.479 1.851,7.405l34.251,24.067c3.703,2.777 6.48,0.927 7.405,-1.85c7.406,-17.591 24.994,-43.508 42.582,-57.394c19.44,-15.736 40.731,-25.919 65.724,-25.919c26.846,-0 58.314,10.183 89.792,33.325l85.164,60.17c38.88,27.771 74.056,44.433 116.637,44.433c68.502,-0 123.117,-39.804 156.443,-106.454c1.847,-3.703 -0.004,-6.48 -1.855,-7.406Zm3102.14,-62.259l158.293,-10.189c2.777,-0.925 5.555,-1.852 4.629,-6.479l-3.702,-36.103c-0,-3.703 -5.554,-4.628 -8.332,-4.628l-155.517,26.848c-1.85,0 -4.628,1.852 -4.628,5.554l0,1.852l1.852,16.662c0.926,1.851 1.851,6.478 7.405,6.478l0,0.005Zm-3319.67,-77.52c0.107,-0.001 0.215,-0.002 0.323,-0.002c16.581,0 30.226,13.645 30.226,30.226c-0,0.109 -0.001,0.218 -0.002,0.328c-0,17.59 -12.959,30.547 -30.547,30.547c-16.663,-0 -29.624,-12.959 -29.624,-30.547c0,-16.667 12.961,-30.552 29.624,-30.552Zm-0,112.934c46.283,-0 83.311,-36.102 83.311,-82.387c0,-45.358 -37.028,-82.386 -83.311,-82.386c-45.196,0 -82.387,37.191 -82.387,82.386c0,45.196 37.191,82.387 82.387,82.387Z" style="fill-rule:nonzero;"/></svg>