<svg xmlns="http://www.w3.org/2000/svg" width="4331.657" height="851" viewBox="0 0 4331.657 851">
  <title>logo-paleo</title>
  <path d="M382.524,500.175c-1.737-2.605-4.342-2.605-6.079,0L352.133,529.7c-18.235,21.708-39.075,30.391-60.783,30.391-29.522,0-60.782-17.366-87.7-45.152l-25.181-24.313c-1.736-1.737-3.473-.869-5.21.868l-36.469,26.05a5.35,5.35,0,0,0,.868,6.078l39.075,35.6c35.6,32.128,77.28,50.362,114.617,50.362,33,0,65.992-11.288,91.174-39.942l31.259-35.6c2.6-3.474.868-5.21-.868-6.947Zm104.2-54.7c-3.474-.868-5.21-5.21-2.6-8.683,9.551-13.025,18.234-29.523,26.918-42.547,1.736-2.6-.869-5.21-1.737-6.079l-33-23.444c-1.737-1.737-4.342,0-5.21,1.736a431.2,431.2,0,0,1-53.836,74.676c-4.341,5.21-6.946,11.288-6.946,16.5,0,14.761,10.42,29.522,25.181,30.391,83.358,7.815,127.643,39.074,127.643,105.066,0,18.235-3.474,38.206-9.552,60.782L540.557,699.02c-.868,3.473-.868,6.946,1.737,9.551l37.338,23.445c2.605,1.736,6.078.868,6.946-2.605l15.63-62.519c6.946-26.918,10.42-51.231,10.42-73.807C612.628,517.542,571.817,468.048,486.722,445.471Zm2519.214-58.4c0,12.157-2.605,20.84-7.815,27.786-6.947,9.552-21.708,12.157-42.548,12.157h-43.416V331.5h43.416c20.84,0,34.733,2.605,42.548,12.156,5.21,6.079,7.815,15.63,7.815,27.787Zm-390.1,5.21c0,12.157-2.605,20.84-6.947,26.05-3.473,4.341-8.683,6.078-15.63,7.815s-15.629,1.736-26.049,1.736h-49.494V331.5h49.494a208.729,208.729,0,0,1,26.918,1.737c6.078.868,11.288,4.341,14.761,7.815,5.21,5.209,6.947,13.893,6.947,26.917Zm-560.933,0c0,12.157-2.605,20.84-6.947,26.05-3.473,4.341-8.683,6.078-15.629,7.815s-15.63,1.736-26.05,1.736h-49.494V331.5h49.494a208.729,208.729,0,0,1,26.918,1.737c6.078.868,11.288,4.341,14.761,7.815,5.21,5.209,6.947,13.893,6.947,26.917Zm2081.49,85.1c0,33.865-6.947,55.573-22.577,68.6-9.551,7.815-23.444,12.157-40.81,12.157s-31.26-4.342-41.68-12.157c-15.629-12.156-21.708-34.732-21.708-68.6V409.644c0-33.865,6.947-56.441,21.708-68.6,10.42-8.684,24.313-12.157,41.68-12.157s31.259,4.342,40.81,12.157c15.63,12.156,22.577,34.732,22.577,68.6ZM3290.651,438.3H3188.19l.868-53.836c0-18.234,5.21-32.127,13.893-41.679,9.552-10.42,21.708-13.893,36.469-13.893,15.63,0,27.786,4.342,37.338,13.893s13.893,23.445,13.893,41.679ZM1451.422,477.372c0,48.626-13.025,79.885-62.519,79.885-46.021,0-63.387-25.181-63.387-79.885v-68.6c0-51.23,15.629-79.885,63.387-79.885s62.519,28.655,62.519,79.885ZM3875.9,555.521H3743.044V466.952h118.091c.869,0,2.6-.868,2.6-1.736V421.8a3.914,3.914,0,0,0-2.6-2.605H3743.044V331.5h127.643a2.3,2.3,0,0,0,2.605-2.605V286.343a2.3,2.3,0,0,0-2.605-2.605H3692.682a2.3,2.3,0,0,0-2.6,2.605v314.33c0,.869,0,.869.868,1.737a3.031,3.031,0,0,0,1.737.868H3875.9c.868,0,1.736-1.736,1.736-2.605V558.126C3877.633,556.389,3876.765,555.521,3875.9,555.521Zm-258.759,0h-123.3V286.343a2.772,2.772,0,0,0-2.605-2.605h-47.757a2.3,2.3,0,0,0-2.605,2.605v314.33a2.772,2.772,0,0,0,2.605,2.605h173.663a2.772,2.772,0,0,0,2.605-2.605V558.126A2.3,2.3,0,0,0,3617.138,555.521ZM2968.6,283.738H2862.663a2.773,2.773,0,0,0-2.605,2.605v314.33a2.773,2.773,0,0,0,2.605,2.605h47.758a2.773,2.773,0,0,0,2.605-2.605V474.767H2968.6c31.259,0,55.572-10.419,72.07-27.786s25.182-40.811,25.182-67.729-7.815-51.23-25.182-68.6C3024.17,294.157,2999.857,283.738,2968.6,283.738Zm-292.849,91.173c0-26.05-8.684-48.626-25.182-65.124s-40.811-26.049-72.07-26.049H2468.221a2.3,2.3,0,0,0-2.605,2.605v314.33a2.772,2.772,0,0,0,2.605,2.605h47.757a3.912,3.912,0,0,0,2.605-2.605V475.636h70.334c11.288,0,19.1,2.6,23.444,6.946,5.21,5.21,7.815,13.025,7.815,24.313V599.8a2.3,2.3,0,0,0,2.605,2.605h47.758a2.773,2.773,0,0,0,2.6-2.605V494.739c0-14.762-4.342-26.05-12.157-34.733-6.078-6.947-13.893-11.288-24.313-13.025C2661.855,432.22,2675.749,407.907,2675.749,374.911Zm-302.175,180.61h-60.782V331.5H2370.1a2.3,2.3,0,0,0,2.605-2.605V286.343a2.3,2.3,0,0,0-2.605-2.605h-170.19a2.773,2.773,0,0,0-2.605,2.605V328.89a2.773,2.773,0,0,0,2.605,2.605h59.914V555.521h-60.782a2.3,2.3,0,0,0-2.605,2.605v42.547a2.772,2.772,0,0,0,2.605,2.605h174.531c.869,0,1.737-1.736,1.737-2.605V558.126C2375.311,556.389,2374.443,555.521,2373.574,555.521Zm-258.758-180.61c0-26.05-8.683-48.626-25.181-65.124s-40.811-26.049-72.071-26.049H1907.288a2.3,2.3,0,0,0-2.605,2.605v314.33a2.772,2.772,0,0,0,2.605,2.605h47.758a3.912,3.912,0,0,0,2.6-2.605V475.636h70.334c11.288,0,19.1,2.6,23.445,6.946,5.21,5.21,7.815,13.025,7.815,24.313V599.8a2.3,2.3,0,0,0,2.6,2.605h47.758a2.773,2.773,0,0,0,2.6-2.605V494.739c0-14.762-4.342-26.05-12.157-34.733-6.078-6.947-13.893-11.288-24.312-13.025C2100.923,432.22,2114.816,407.907,2114.816,374.911Zm-309.989-91.173h-47.758a2.3,2.3,0,0,0-2.605,2.605V496.475c0,23.445-4.341,39.075-12.156,48.626-7.815,10.42-21.708,13.025-38.206,13.025-17.366,0-30.391-4.342-38.206-13.025-8.683-10.42-13.025-25.181-13.025-48.626V286.343a2.3,2.3,0,0,0-2.605-2.605h-47.757a2.773,2.773,0,0,0-2.605,2.605V501.685c0,54.7,38.206,104.2,104.2,104.2,65.124,0,103.33-49.494,103.33-104.2V286.343A2.3,2.3,0,0,0,1804.827,283.738Zm2268.178-3.474c-87.7,0-123.3,71.2-123.3,163.244s36.469,162.375,123.3,162.375,122.432-70.333,122.432-162.375S4159.836,280.264,4073.005,280.264Zm-832.716,0c-65.124,0-103.33,49.494-103.33,105.067V600.673a2.772,2.772,0,0,0,2.605,2.605h46.889a2.772,2.772,0,0,0,2.605-2.605V486.924h101.593V600.673a3.914,3.914,0,0,0,2.605,2.605h47.757a2.772,2.772,0,0,0,2.605-2.605V385.331C3343.618,329.758,3305.412,280.264,3240.289,280.264Zm-1851.386,0c-87.7,0-123.3,71.2-123.3,163.244s35.6,162.375,123.3,162.375c86.832,0,122.433-70.333,122.433-162.375S1475.735,280.264,1388.9,280.264Zm-367.3,60.783c10.42-7.815,24.313-12.157,41.679-12.157,18.235,0,31.26,4.342,41.679,12.157,15.63,11.288,20.84,33.864,20.84,64.255a2.773,2.773,0,0,0,2.6,2.6h51.231a2.3,2.3,0,0,0,2.605-2.6c0-53.836-32.128-125.038-119.828-125.038s-123.3,71.2-123.3,163.244,35.6,162.375,123.3,162.375,119.828-72.07,119.828-124.169a2.773,2.773,0,0,0-2.605-2.605h-51.231a2.773,2.773,0,0,0-2.6,2.605c0,30.391-6.078,51.231-20.84,64.255-10.419,9.552-25.181,11.288-46.02,11.288-15.63,0-27.787-4.341-37.338-11.288-16.5-12.156-22.576-34.732-22.576-68.6V409.644C999.029,375.779,1005.975,353.2,1021.605,341.047Zm-221.421-43.19-32.128-22.576c-3.473-2.605-6.078-.868-6.946,1.737-6.078,17.366-23.445,40.811-39.943,53.835-18.234,14.762-38.206,24.313-61.65,24.313-25.181,0-54.7-9.551-84.227-31.259l-79.885-56.441C458.936,241.417,425.94,225.787,386,225.787c-64.256,0-115.486,37.338-146.746,99.857-1.736,3.473,0,6.078,1.737,6.946l32.128,22.576c3.473,2.605,6.078.869,6.946-1.736,6.947-16.5,23.445-40.811,39.943-53.836,18.235-14.761,38.206-24.313,61.65-24.313,25.182,0,54.7,9.552,84.227,31.26l79.885,56.44c36.47,26.05,69.466,41.679,109.408,41.679,64.256,0,115.486-37.337,146.746-99.856C803.657,301.331,801.921,298.726,800.184,297.857Zm2909.864-58.4L3858.53,229.9c2.605-.868,5.21-1.737,4.342-6.078l-3.473-33.865c0-3.473-5.21-4.341-7.815-4.341L3705.706,210.8c-1.736,0-4.341,1.737-4.341,5.21v1.737l1.737,15.629C3703.97,235.112,3704.838,239.453,3710.048,239.453ZM596.13,166.742A28.352,28.352,0,0,1,624.784,195.4c0,16.5-12.156,28.654-28.654,28.654-15.63,0-27.787-12.156-27.787-28.654C568.343,179.766,580.5,166.742,596.13,166.742Zm0,105.934c43.415,0,78.148-33.864,78.148-77.28,0-42.547-34.733-77.28-78.148-77.28a77.28,77.28,0,1,0,0,154.56Z" fill="#d15726"/>
</svg>
